{
    "asset" : {
        "generator" : "Khronos glTF Blender I/O v3.3.36",
        "version" : "2.0"
    },
    "scene" : 0,
    "scenes" : [
        {
            "name" : "Scene",
            "nodes" : [
                0,
                1,
                2,
                3
            ]
        }
    ],
    "nodes" : [
        {
            "mesh" : 0,
            "name" : "Object_1",
            "rotation" : [
                0.7071068286895752,
                0,
                0,
                0.7071067094802856
            ],
            "scale" : [
                0.0010000000474974513,
                0.0010000003967434168,
                0.0010000003967434168
            ]
        },
        {
            "mesh" : 1,
            "name" : "Object_2",
            "rotation" : [
                0.7071068286895752,
                0,
                0,
                0.7071067094802856
            ],
            "scale" : [
                0.0010000000474974513,
                0.0010000003967434168,
                0.0010000003967434168
            ]
        },
        {
            "mesh" : 2,
            "name" : "Object_3",
            "rotation" : [
                0.7071068286895752,
                0,
                0,
                0.7071067094802856
            ],
            "scale" : [
                0.0010000000474974513,
                0.0010000003967434168,
                0.0010000003967434168
            ]
        },
        {
            "mesh" : 3,
            "name" : "Object_4",
            "rotation" : [
                0.7071068286895752,
                0,
                0,
                0.7071067094802856
            ],
            "scale" : [
                0.0010000000474974513,
                0.0010000003967434168,
                0.0010000003967434168
            ],
            "translation" : [
                -0.0009453894454054534,
                1.2804921865463257,
                -0.01882045902311802
            ]
        }
    ],
    "materials" : [
        {
            "doubleSided" : true,
            "name" : "Material.001",
            "pbrMetallicRoughness" : {
                "baseColorFactor" : [
                    0.800000011920929,
                    0.800000011920929,
                    0.800000011920929,
                    1
                ],
                "metallicFactor" : 0,
                "roughnessFactor" : 0.20000000298023224
            }
        },
        {
            "doubleSided" : true,
            "name" : "material_0",
            "pbrMetallicRoughness" : {
                "metallicFactor" : 0,
                "roughnessFactor" : 0.6000000238418579
            }
        },
        {
            "doubleSided" : true,
            "name" : "Material.002",
            "pbrMetallicRoughness" : {
                "metallicFactor" : 0
            }
        }
    ],
    "meshes" : [
        {
            "name" : "Object_0",
            "primitives" : [
                {
                    "attributes" : {
                        "POSITION" : 0,
                        "NORMAL" : 1
                    },
                    "indices" : 2,
                    "material" : 0
                }
            ]
        },
        {
            "name" : "Object_2",
            "primitives" : [
                {
                    "attributes" : {
                        "POSITION" : 3,
                        "NORMAL" : 4,
                        "TEXCOORD_0" : 5
                    },
                    "indices" : 6,
                    "material" : 1
                }
            ]
        },
        {
            "name" : "Object_3",
            "primitives" : [
                {
                    "attributes" : {
                        "POSITION" : 7,
                        "NORMAL" : 8,
                        "TEXCOORD_0" : 9
                    },
                    "indices" : 10,
                    "material" : 2
                }
            ]
        },
        {
            "name" : "Object_3.001",
            "primitives" : [
                {
                    "attributes" : {
                        "POSITION" : 11,
                        "NORMAL" : 12,
                        "TEXCOORD_0" : 13
                    },
                    "indices" : 14,
                    "material" : 2
                }
            ]
        }
    ],
    "accessors" : [
        {
            "bufferView" : 0,
            "componentType" : 5126,
            "count" : 10576,
            "max" : [
                289.68841552734375,
                188.1796875,
                -14.54024887084961
            ],
            "min" : [
                -299.1488037109375,
                -137.88389587402344,
                -1898.4375
            ],
            "type" : "VEC3"
        },
        {
            "bufferView" : 1,
            "componentType" : 5126,
            "count" : 10576,
            "type" : "VEC3"
        },
        {
            "bufferView" : 2,
            "componentType" : 5123,
            "count" : 62526,
            "type" : "SCALAR"
        },
        {
            "bufferView" : 3,
            "componentType" : 5126,
            "count" : 10509,
            "max" : [
                185.92550659179688,
                207.1353759765625,
                -0.6013072729110718
            ],
            "min" : [
                -186.2198028564453,
                -93.91371154785156,
                -130.18798828125
            ],
            "type" : "VEC3"
        },
        {
            "bufferView" : 4,
            "componentType" : 5126,
            "count" : 10509,
            "type" : "VEC3"
        },
        {
            "bufferView" : 5,
            "componentType" : 5126,
            "count" : 10509,
            "type" : "VEC2"
        },
        {
            "bufferView" : 6,
            "componentType" : 5123,
            "count" : 54888,
            "type" : "SCALAR"
        },
        {
            "bufferView" : 7,
            "componentType" : 5126,
            "count" : 4712,
            "max" : [
                181.81211853027344,
                133.28604125976562,
                -49.73784637451172
            ],
            "min" : [
                -190.01333618164062,
                -135.29054260253906,
                -1162.5428466796875
            ],
            "type" : "VEC3"
        },
        {
            "bufferView" : 8,
            "componentType" : 5126,
            "count" : 4712,
            "type" : "VEC3"
        },
        {
            "bufferView" : 9,
            "componentType" : 5126,
            "count" : 4712,
            "type" : "VEC2"
        },
        {
            "bufferView" : 10,
            "componentType" : 5123,
            "count" : 26319,
            "type" : "SCALAR"
        },
        {
            "bufferView" : 11,
            "componentType" : 5126,
            "count" : 14087,
            "max" : [
                330.3149108886719,
                186.3438262939453,
                375.75579833984375
            ],
            "min" : [
                -305.37457275390625,
                -156.94287109375,
                -352.5308837890625
            ],
            "type" : "VEC3"
        },
        {
            "bufferView" : 12,
            "componentType" : 5126,
            "count" : 14087,
            "type" : "VEC3"
        },
        {
            "bufferView" : 13,
            "componentType" : 5126,
            "count" : 14087,
            "type" : "VEC2"
        },
        {
            "bufferView" : 14,
            "componentType" : 5123,
            "count" : 82074,
            "type" : "SCALAR"
        }
    ],
    "bufferViews" : [
        {
            "buffer" : 0,
            "byteLength" : 126912,
            "byteOffset" : 0,
            "target" : 34962
        },
        {
            "buffer" : 0,
            "byteLength" : 126912,
            "byteOffset" : 126912,
            "target" : 34962
        },
        {
            "buffer" : 0,
            "byteLength" : 125052,
            "byteOffset" : 253824,
            "target" : 34963
        },
        {
            "buffer" : 0,
            "byteLength" : 126108,
            "byteOffset" : 378876,
            "target" : 34962
        },
        {
            "buffer" : 0,
            "byteLength" : 126108,
            "byteOffset" : 504984,
            "target" : 34962
        },
        {
            "buffer" : 0,
            "byteLength" : 84072,
            "byteOffset" : 631092,
            "target" : 34962
        },
        {
            "buffer" : 0,
            "byteLength" : 109776,
            "byteOffset" : 715164,
            "target" : 34963
        },
        {
            "buffer" : 0,
            "byteLength" : 56544,
            "byteOffset" : 824940,
            "target" : 34962
        },
        {
            "buffer" : 0,
            "byteLength" : 56544,
            "byteOffset" : 881484,
            "target" : 34962
        },
        {
            "buffer" : 0,
            "byteLength" : 37696,
            "byteOffset" : 938028,
            "target" : 34962
        },
        {
            "buffer" : 0,
            "byteLength" : 52638,
            "byteOffset" : 975724,
            "target" : 34963
        },
        {
            "buffer" : 0,
            "byteLength" : 169044,
            "byteOffset" : 1028364,
            "target" : 34962
        },
        {
            "buffer" : 0,
            "byteLength" : 169044,
            "byteOffset" : 1197408,
            "target" : 34962
        },
        {
            "buffer" : 0,
            "byteLength" : 112696,
            "byteOffset" : 1366452,
            "target" : 34962
        },
        {
            "buffer" : 0,
            "byteLength" : 164148,
            "byteOffset" : 1479148,
            "target" : 34963
        }
    ],
    "buffers" : [
        {
            "byteLength" : 1643296,
            "uri" : "data:application/octet-stream;base64,"
        }
    ]
}
