{
	"asset":{
		"generator":"Khronos glTF Blender I/O v3.6.27",
		"version":"2.0"
	},
	"scene":0,
	"scenes":[
		{
			"name":"Scene",
			"nodes":[
				0,
				1,
				2,
				3
			]
		}
	],
	"nodes":[
		{
			"mesh":0,
			"name":"Object_5",
			"rotation":[
				0.7071069478988647,
				0,
				0,
				0.7071066498756409
			],
			"scale":[
				0.0010000000474974513,
				0.0010000003967434168,
				0.0010000003967434168
			]
		},
		{
			"mesh":1,
			"name":"Object_7",
			"rotation":[
				0.7071069478988647,
				0,
				0,
				0.7071066498756409
			],
			"scale":[
				0.0010000000474974513,
				0.0010000003967434168,
				0.0010000003967434168
			]
		},
		{
			"mesh":2,
			"name":"Object_9",
			"rotation":[
				0.7071069478988647,
				0,
				0,
				0.7071066498756409
			],
			"scale":[
				0.0010000000474974513,
				0.0010000003967434168,
				0.0010000003967434168
			]
		},
		{
			"mesh":3,
			"name":"Object_11",
			"rotation":[
				0.7071069478988647,
				0,
				0,
				0.7071066498756409
			],
			"scale":[
				0.0010000000474974513,
				0.0010000003967434168,
				0.0010000003967434168
			]
		}
	],
	"materials":[
		{
			"doubleSided":true,
			"name":"Material.001",
			"pbrMetallicRoughness":{
				"baseColorFactor":[
					0.800000011920929,
					0.800000011920929,
					0.800000011920929,
					1
				],
				"metallicFactor":0,
				"roughnessFactor":0.20000000298023224
			}
		},
		{
			"doubleSided":true,
			"name":"material_0",
			"pbrMetallicRoughness":{
				"metallicFactor":0,
				"roughnessFactor":0.6000000238418579
			}
		},
		{
			"doubleSided":true,
			"name":"Material.002",
			"pbrMetallicRoughness":{
				"baseColorTexture":{
					"index":0
				},
				"metallicFactor":0
			}
		}
	],
	"meshes":[
		{
			"name":"Object_0.001",
			"primitives":[
				{
					"attributes":{
						"POSITION":0,
						"NORMAL":1
					},
					"indices":2,
					"material":0
				}
			]
		},
		{
			"name":"Object_1",
			"primitives":[
				{
					"attributes":{
						"POSITION":3,
						"NORMAL":4,
						"TEXCOORD_0":5
					},
					"indices":6,
					"material":1
				}
			]
		},
		{
			"name":"Object_2",
			"primitives":[
				{
					"attributes":{
						"POSITION":7,
						"NORMAL":8,
						"TEXCOORD_0":9
					},
					"indices":10,
					"material":1
				}
			]
		},
		{
			"name":"Object_3",
			"primitives":[
				{
					"attributes":{
						"POSITION":11,
						"NORMAL":12,
						"TEXCOORD_0":13
					},
					"indices":14,
					"material":2
				}
			]
		}
	],
	"textures":[
		{
			"sampler":0,
			"source":0
		}
	],
	"images":[
		{
			"bufferView":15,
			"mimeType":"image/png",
			"name":"Material.002_baseColor"
		}
	],
	"accessors":[
		{
			"bufferView":0,
			"componentType":5126,
			"count":10576,
			"max":[
				289.68841552734375,
				188.1796875,
				-14.54024887084961
			],
			"min":[
				-299.1488037109375,
				-137.88389587402344,
				-1898.4375
			],
			"type":"VEC3"
		},
		{
			"bufferView":1,
			"componentType":5126,
			"count":10576,
			"type":"VEC3"
		},
		{
			"bufferView":2,
			"componentType":5123,
			"count":62526,
			"type":"SCALAR"
		},
		{
			"bufferView":3,
			"componentType":5126,
			"count":5102,
			"max":[
				185.92550659179688,
				206.9861602783203,
				-0.6084216833114624
			],
			"min":[
				50.074764251708984,
				-93.91371154785156,
				-130.18798828125
			],
			"type":"VEC3"
		},
		{
			"bufferView":4,
			"componentType":5126,
			"count":5102,
			"type":"VEC3"
		},
		{
			"bufferView":5,
			"componentType":5126,
			"count":5102,
			"type":"VEC2"
		},
		{
			"bufferView":6,
			"componentType":5123,
			"count":27444,
			"type":"SCALAR"
		},
		{
			"bufferView":7,
			"componentType":5126,
			"count":5102,
			"max":[
				-49.72277069091797,
				207.1353759765625,
				-0.6013072729110718
			],
			"min":[
				-186.2198028564453,
				-93.69651794433594,
				-130.13784790039062
			],
			"type":"VEC3"
		},
		{
			"bufferView":8,
			"componentType":5126,
			"count":5102,
			"type":"VEC3"
		},
		{
			"bufferView":9,
			"componentType":5126,
			"count":5102,
			"type":"VEC2"
		},
		{
			"bufferView":10,
			"componentType":5123,
			"count":27444,
			"type":"SCALAR"
		},
		{
			"bufferView":11,
			"componentType":5126,
			"count":18799,
			"max":[
				329.3695068359375,
				167.52316284179688,
				-49.73784637451172
			],
			"min":[
				-306.3199768066406,
				-175.76353454589844,
				-1633.0225830078125
			],
			"type":"VEC3"
		},
		{
			"bufferView":12,
			"componentType":5126,
			"count":18799,
			"type":"VEC3"
		},
		{
			"bufferView":13,
			"componentType":5126,
			"count":18799,
			"type":"VEC2"
		},
		{
			"bufferView":14,
			"componentType":5123,
			"count":108393,
			"type":"SCALAR"
		}
	],
	"bufferViews":[
		{
			"buffer":0,
			"byteLength":126912,
			"byteOffset":0,
			"target":34962
		},
		{
			"buffer":0,
			"byteLength":126912,
			"byteOffset":126912,
			"target":34962
		},
		{
			"buffer":0,
			"byteLength":125052,
			"byteOffset":253824,
			"target":34963
		},
		{
			"buffer":0,
			"byteLength":61224,
			"byteOffset":378876,
			"target":34962
		},
		{
			"buffer":0,
			"byteLength":61224,
			"byteOffset":440100,
			"target":34962
		},
		{
			"buffer":0,
			"byteLength":40816,
			"byteOffset":501324,
			"target":34962
		},
		{
			"buffer":0,
			"byteLength":54888,
			"byteOffset":542140,
			"target":34963
		},
		{
			"buffer":0,
			"byteLength":61224,
			"byteOffset":597028,
			"target":34962
		},
		{
			"buffer":0,
			"byteLength":61224,
			"byteOffset":658252,
			"target":34962
		},
		{
			"buffer":0,
			"byteLength":40816,
			"byteOffset":719476,
			"target":34962
		},
		{
			"buffer":0,
			"byteLength":54888,
			"byteOffset":760292,
			"target":34963
		},
		{
			"buffer":0,
			"byteLength":225588,
			"byteOffset":815180,
			"target":34962
		},
		{
			"buffer":0,
			"byteLength":225588,
			"byteOffset":1040768,
			"target":34962
		},
		{
			"buffer":0,
			"byteLength":150392,
			"byteOffset":1266356,
			"target":34962
		},
		{
			"buffer":0,
			"byteLength":216786,
			"byteOffset":1416748,
			"target":34963
		},
		{
			"buffer":0,
			"byteLength":661640,
			"byteOffset":1633536
		}
	],
	"samplers":[
		{
			"magFilter":9729,
			"minFilter":9987
		}
	],
	"buffers":[
		{
			"byteLength":2295176,
			"uri":"data:application/octet-stream;base64,"
		}
	]
}
